<?xml version="1.0" standalone="no"?>
<!DOCTYPE svg PUBLIC "-//W3C//DTD SVG 20010904//EN"
 "http://www.w3.org/TR/2001/REC-SVG-20010904/DTD/svg10.dtd">
<svg version="1.0" xmlns="http://www.w3.org/2000/svg"
 width="512.000000pt" height="512.000000pt" viewBox="0 0 512.000000 512.000000"
 preserveAspectRatio="xMidYMid meet">
<metadata>
Created by potrace 1.14, written by Peter Selinger 2001-2017
</metadata>
<g transform="translate(0.000000,512.000000) scale(0.100000,-0.100000)"
fill="#000000" stroke="none">
<path d="M708 5104 c-347 -74 -618 -345 -691 -689 -13 -61 -15 -309 -16 -1860
l0 -1790 24 -92 c43 -166 119 -299 239 -418 107 -106 231 -180 369 -220 30 -8
65 -19 78 -23 41 -12 3608 -14 3670 -1 30 6 64 12 77 15 43 9 155 54 211 86
214 120 365 320 426 563 l23 90 0 1790 c0 1552 -2 1799 -15 1860 -73 341 -332
603 -676 685 -79 19 -137 19 -1867 19 -1518 -1 -1795 -3 -1852 -15z"/>
</g>
</svg>
